<?xml version="1.0" encoding="UTF-8"?>
<svg id="Layer_1" data-name="Layer 1" xmlns="http://www.w3.org/2000/svg" viewBox="0 0 10.65 9.51">
  <defs>
    <style>
      .cls-1 {
        fill: #e85e4d;
        stroke-width: 0px;
      }
    </style>
  </defs>
  <path class="cls-1" d="m2.48,9.51c-.47,0-.89-.08-1.27-.25-.37-.16-.67-.4-.89-.72-.22-.32-.33-.7-.33-1.15s.11-.83.33-1.14c.22-.31.52-.54.91-.69.39-.16.83-.23,1.33-.23h1.81v-.37c0-.31-.1-.57-.29-.77-.2-.2-.51-.3-.93-.3s-.73.1-.93.29c-.2.19-.34.44-.4.74l-1.55-.52c.11-.34.28-.65.51-.93.24-.28.55-.51.95-.68.4-.17.88-.26,1.45-.26.87,0,1.56.22,2.07.65.51.44.76,1.07.76,1.89v2.46c0,.27.12.4.37.4h.53v1.39h-1.12c-.33,0-.6-.08-.81-.24-.21-.16-.32-.37-.32-.64h0s-.25-.01-.25-.01c-.04.11-.12.25-.24.42-.12.17-.32.33-.59.46s-.63.2-1.09.2Zm.29-1.36c.47,0,.85-.13,1.15-.39.3-.26.45-.61.45-1.05v-.13h-1.69c-.31,0-.56.07-.73.2s-.27.32-.27.56.09.44.28.59c.19.15.46.23.81.23Z"/>
  <path class="cls-1" d="m9.38,9.51c-.36,0-.66-.12-.9-.35-.24-.24-.37-.54-.37-.91s.12-.68.37-.91c.24-.24.54-.35.9-.35s.67.12.91.35c.24.24.36.54.36.91s-.12.68-.36.91c-.24.24-.54.35-.91.35Z"/>
</svg>